<svg width="611" height="87" xmlns="http://www.w3.org/2000/svg" xmlns:xlink="http://www.w3.org/1999/xlink" xml:space="preserve" overflow="hidden"><g transform="translate(-13 -382)"><g><g><g><g><path d="M268.512 13.6569 271.816 13.6569 277.323 22.9083 278.424 25.1111 278.424 13.6569 281.729 13.6569 281.729 30.1773 278.424 30.1773 272.697 21.1462 271.596 18.9434 271.596 30.3976 268.292 30.3976 268.292 13.6569 268.512 13.6569Z" fill="#4472C4" fill-rule="nonzero" fill-opacity="1" transform="matrix(1.00427 0 0 1 14 383.598)"/><path d="M288.998 13.6569 292.522 13.6569 298.249 30.1773 294.725 30.1773 293.623 26.653 287.676 26.653 286.575 30.1773 283.27 30.1773 288.998 13.6569ZM288.557 24.23 292.962 24.23 291.421 19.384 290.76 16.7407 290.099 19.384 288.557 24.23Z" fill="#4472C4" fill-rule="nonzero" fill-opacity="1" transform="matrix(1.00427 0 0 1 14 383.598)"/><path d="M296.707 13.6569 309.923 13.6569 309.923 16.5204 304.857 16.5204 304.857 30.1773 301.553 30.1773 301.553 16.5204 296.487 16.5204 296.487 13.6569 296.707 13.6569Z" fill="#4472C4" fill-rule="nonzero" fill-opacity="1" transform="matrix(1.00427 0 0 1 14 383.598)"/><path d="M311.686 13.6569 314.99 13.6569 314.99 30.1773 311.686 30.1773 311.686 13.6569Z" fill="#4472C4" fill-rule="nonzero" fill-opacity="1" transform="matrix(1.00427 0 0 1 14 383.598)"/><path d="M316.972 22.0273C316.972 17.1813 320.056 13.4366 324.902 13.4366 329.748 13.4366 332.832 17.1813 332.832 22.0273 332.832 26.8732 329.748 30.6179 324.902 30.6179 320.056 30.6179 316.972 26.8732 316.972 22.0273ZM329.307 22.0273C329.307 18.7232 327.766 16.0799 324.902 16.0799 322.038 16.0799 320.276 18.7232 320.276 22.0273 320.276 25.3313 321.818 27.9746 324.902 27.9746 327.986 27.9746 329.307 25.3313 329.307 22.0273Z" fill="#4472C4" fill-rule="nonzero" fill-opacity="1" transform="matrix(1.00427 0 0 1 14 383.598)"/><path d="M334.594 13.6569 337.898 13.6569 343.405 22.9083 344.506 25.1111 344.506 13.6569 347.81 13.6569 347.81 30.1773 344.506 30.1773 338.779 21.1462 337.678 18.9434 337.678 30.3976 334.374 30.3976 334.374 13.6569 334.594 13.6569Z" fill="#4472C4" fill-rule="nonzero" fill-opacity="1" transform="matrix(1.00427 0 0 1 14 383.598)"/><path d="M355.079 13.6569 358.604 13.6569 364.331 30.1773 360.806 30.1773 359.705 26.653 353.758 26.653 352.656 30.1773 349.352 30.1773 355.079 13.6569ZM354.639 24.23 359.044 24.23 357.502 19.384 356.841 16.7407 356.181 19.384 354.639 24.23Z" fill="#4472C4" fill-rule="nonzero" fill-opacity="1" transform="matrix(1.00427 0 0 1 14 383.598)"/><path d="M365.873 13.6569 369.177 13.6569 369.177 27.3138 376.886 27.3138 376.886 30.1773 365.873 30.1773 365.873 13.6569Z" fill="#4472C4" fill-rule="nonzero" fill-opacity="1" transform="matrix(1.00427 0 0 1 14 383.598)"/><path d="M382.613 13.6569 385.917 13.6569 385.917 30.1773 382.613 30.1773 382.613 13.6569Z" fill="#4472C4" fill-rule="nonzero" fill-opacity="1" transform="matrix(1.00427 0 0 1 14 383.598)"/><path d="M388.561 13.6569 391.865 13.6569 397.372 22.9083 398.473 25.1111 398.473 13.6569 401.777 13.6569 401.777 30.1773 398.473 30.1773 392.746 21.1462 391.645 18.9434 391.645 30.3976 388.34 30.3976 388.34 13.6569 388.561 13.6569Z" fill="#4472C4" fill-rule="nonzero" fill-opacity="1" transform="matrix(1.00427 0 0 1 14 383.598)"/><path d="M403.76 25.1111 407.064 25.1111C407.284 27.0935 408.385 27.9746 410.808 27.9746 412.57 27.9746 414.112 27.3138 414.112 25.7719 414.112 24.23 412.57 23.7894 409.927 23.3489 407.064 22.6881 404.2 21.807 404.2 18.5029 404.2 15.1988 406.843 13.6569 410.588 13.6569 414.333 13.6569 416.756 15.4191 416.976 18.7232L413.672 18.7232C413.452 16.961 412.13 16.3002 410.588 16.3002 408.826 16.3002 407.504 16.961 407.504 18.2826 407.504 19.6043 408.606 20.0448 411.029 20.4853 414.333 21.1462 417.196 22.0273 417.196 25.5516 417.196 28.8557 414.553 30.8382 410.808 30.8382 406.403 30.6179 403.76 28.6354 403.76 25.1111Z" fill="#4472C4" fill-rule="nonzero" fill-opacity="1" transform="matrix(1.00427 0 0 1 14 383.598)"/><path d="M417.637 13.6569 430.853 13.6569 430.853 16.5204 425.787 16.5204 425.787 30.1773 422.483 30.1773 422.483 16.5204 417.637 16.5204 417.637 13.6569Z" fill="#4472C4" fill-rule="nonzero" fill-opacity="1" transform="matrix(1.00427 0 0 1 14 383.598)"/><path d="M432.615 13.6569 435.919 13.6569 435.919 30.1773 432.615 30.1773 432.615 13.6569Z" fill="#4472C4" fill-rule="nonzero" fill-opacity="1" transform="matrix(1.00427 0 0 1 14 383.598)"/><path d="M437.681 13.6569 450.898 13.6569 450.898 16.5204 445.832 16.5204 445.832 30.1773 442.527 30.1773 442.527 16.5204 437.461 16.5204 437.461 13.6569 437.681 13.6569Z" fill="#4472C4" fill-rule="nonzero" fill-opacity="1" transform="matrix(1.00427 0 0 1 14 383.598)"/><path d="M452.66 24.8908 452.66 13.6569 455.964 13.6569 455.964 24.8908C455.964 26.653 456.845 27.7543 459.048 27.7543 461.251 27.7543 462.132 26.4327 462.132 24.8908L462.132 13.6569 465.436 13.6569 465.436 24.8908C465.436 28.4152 463.233 30.3976 459.048 30.3976 454.863 30.3976 452.66 28.4152 452.66 24.8908Z" fill="#4472C4" fill-rule="nonzero" fill-opacity="1" transform="matrix(1.00427 0 0 1 14 383.598)"/><path d="M467.198 13.6569 480.414 13.6569 480.414 16.5204 475.348 16.5204 475.348 30.1773 472.044 30.1773 472.044 16.5204 466.978 16.5204 466.978 13.6569 467.198 13.6569Z" fill="#4472C4" fill-rule="nonzero" fill-opacity="1" transform="matrix(1.00427 0 0 1 14 383.598)"/><path d="M482.177 13.6569 494.292 13.6569 494.292 16.5204 485.481 16.5204 485.481 20.2651 493.19 20.2651 493.19 22.9083 485.481 22.9083 485.481 27.3138 494.292 27.3138 494.292 30.1773 481.956 30.1773 481.956 13.6569 482.177 13.6569Z" fill="#4472C4" fill-rule="nonzero" fill-opacity="1" transform="matrix(1.00427 0 0 1 14 383.598)"/><path d="M499.578 22.0273C499.578 17.1813 502.662 13.4366 507.508 13.4366 512.354 13.4366 515.438 17.1813 515.438 22.0273 515.438 26.8732 512.354 30.6179 507.508 30.6179 502.662 30.6179 499.578 26.8732 499.578 22.0273ZM512.134 22.0273C512.134 18.7232 510.592 16.0799 507.728 16.0799 504.865 16.0799 503.102 18.7232 503.102 22.0273 503.102 25.3313 504.644 27.9746 507.728 27.9746 510.812 27.9746 512.134 25.3313 512.134 22.0273Z" fill="#4472C4" fill-rule="nonzero" fill-opacity="1" transform="matrix(1.00427 0 0 1 14 383.598)"/><path d="M517.42 13.6569 529.315 13.6569 529.315 16.5204 520.724 16.5204 520.724 20.4853 527.993 20.4853 527.993 23.3489 520.724 23.3489 520.724 30.1773 517.42 30.1773 517.42 13.6569Z" fill="#4472C4" fill-rule="nonzero" fill-opacity="1" transform="matrix(1.00427 0 0 1 14 383.598)"/><path d="M267.851 48.2397 271.155 48.2397C271.376 50.2221 272.477 51.1032 274.9 51.1032 276.662 51.1032 278.204 50.4424 278.204 48.9005 278.204 47.3586 276.662 46.918 274.019 46.4775 271.155 45.8167 268.292 44.9356 268.292 41.6315 268.292 38.3274 270.935 36.7855 274.68 36.7855 278.424 36.7855 280.847 38.5477 281.068 41.8518L277.764 41.8518C277.543 40.0896 276.222 39.4288 274.68 39.4288 272.918 39.4288 271.596 40.0896 271.596 41.4112 271.596 42.7329 272.697 43.1734 275.12 43.614 278.424 44.2748 281.288 45.1559 281.288 48.6802 281.288 51.9843 278.645 53.9668 274.9 53.9668 270.495 53.7465 267.851 51.764 267.851 48.2397Z" fill="#4472C4" fill-rule="nonzero" fill-opacity="1" transform="matrix(1.00427 0 0 1 14 383.598)"/><path d="M281.729 36.7855 294.945 36.7855 294.945 39.6491 289.879 39.6491 289.879 53.306 286.575 53.306 286.575 39.6491 281.508 39.6491 281.508 36.7855 281.729 36.7855Z" fill="#4472C4" fill-rule="nonzero" fill-opacity="1" transform="matrix(1.00427 0 0 1 14 383.598)"/><path d="M299.35 36.7855 302.875 36.7855 308.602 53.306 305.077 53.306 303.976 49.7816 298.029 49.7816 296.927 53.306 293.623 53.306 299.35 36.7855ZM298.69 47.3586 303.095 47.3586 301.553 42.5126 300.892 39.8693 300.231 42.5126 298.69 47.3586Z" fill="#4472C4" fill-rule="nonzero" fill-opacity="1" transform="matrix(1.00427 0 0 1 14 383.598)"/><path d="M309.923 36.7855 313.228 36.7855 318.734 46.037 319.836 48.2397 319.836 36.7855 323.14 36.7855 323.14 53.306 319.836 53.306 314.109 44.2748 313.007 42.0721 313.007 53.5262 309.703 53.5262 309.703 36.7855 309.923 36.7855Z" fill="#4472C4" fill-rule="nonzero" fill-opacity="1" transform="matrix(1.00427 0 0 1 14 383.598)"/><path d="M325.783 36.7855 332.171 36.7855C336.576 36.7855 339.44 40.3099 339.44 45.1559 339.44 47.7991 338.559 50.2221 336.797 51.5438 335.475 52.6451 333.933 53.0857 331.951 53.0857L325.783 53.0857 325.783 36.7855ZM331.73 50.4424C334.814 50.4424 336.136 48.46 336.136 45.1559 336.136 41.8518 334.594 39.6491 331.951 39.6491L329.307 39.6491 329.307 50.4424 331.73 50.4424Z" fill="#4472C4" fill-rule="nonzero" fill-opacity="1" transform="matrix(1.00427 0 0 1 14 383.598)"/><path d="M344.947 36.7855 348.471 36.7855 354.198 53.306 350.674 53.306 349.572 49.7816 343.625 49.7816 342.524 53.306 339.22 53.306 344.947 36.7855ZM344.506 47.3586 348.912 47.3586 347.37 42.5126 346.709 39.8693 346.048 42.5126 344.506 47.3586Z" fill="#4472C4" fill-rule="nonzero" fill-opacity="1" transform="matrix(1.00427 0 0 1 14 383.598)"/><path d="M355.74 36.7855 363.229 36.7855C366.313 36.7855 368.516 38.5477 368.516 41.4112 368.516 43.3937 367.635 44.9356 365.432 45.3761 366.974 45.8167 367.635 46.6978 367.855 48.6802 368.075 51.1032 368.075 52.8654 368.516 53.0857L368.516 53.306 365.212 53.306C364.771 53.0857 364.771 51.3235 364.551 49.5613 364.331 47.7991 363.45 46.6978 361.247 46.6978L358.604 46.6978 358.604 53.306 355.3 53.306 355.3 36.7855 355.74 36.7855ZM359.044 44.0545 362.569 44.0545C364.331 44.0545 365.212 43.1734 365.212 41.8518 365.212 40.5301 364.331 39.4288 362.569 39.4288L358.824 39.4288 359.044 44.0545Z" fill="#4472C4" fill-rule="nonzero" fill-opacity="1" transform="matrix(1.00427 0 0 1 14 383.598)"/><path d="M370.719 36.7855 377.107 36.7855C381.512 36.7855 384.376 40.3099 384.376 45.1559 384.376 47.7991 383.494 50.2221 381.732 51.5438 380.411 52.6451 378.869 53.0857 376.886 53.0857L370.719 53.0857 370.719 36.7855ZM376.666 50.4424C379.75 50.4424 381.071 48.46 381.071 45.1559 381.071 41.8518 379.53 39.6491 376.886 39.6491L374.243 39.6491 374.243 50.4424 376.666 50.4424Z" fill="#4472C4" fill-rule="nonzero" fill-opacity="1" transform="matrix(1.00427 0 0 1 14 383.598)"/><path d="M385.477 48.2397 388.781 48.2397C389.001 50.2221 390.103 51.1032 392.526 51.1032 394.288 51.1032 395.83 50.4424 395.83 48.9005 395.83 47.3586 394.288 46.918 391.645 46.4775 388.781 45.8167 385.917 44.9356 385.917 41.6315 385.917 38.3274 388.561 36.7855 392.305 36.7855 396.05 36.7855 398.473 38.5477 398.693 41.8518L395.609 41.8518C395.389 40.0896 394.068 39.4288 392.526 39.4288 390.763 39.4288 389.442 40.0896 389.442 41.4112 389.442 42.7329 390.543 43.1734 392.966 43.614 396.27 44.2748 399.134 45.1559 399.134 48.6802 399.134 51.9843 396.491 53.9668 392.746 53.9668 388.12 53.7465 385.697 51.764 385.477 48.2397Z" fill="#4472C4" fill-rule="nonzero" fill-opacity="1" transform="matrix(1.00427 0 0 1 14 383.598)"/><path d="M409.487 36.7855 413.011 36.7855 418.738 53.306 415.434 53.306 414.333 49.7816 408.385 49.7816 407.284 53.306 403.98 53.306 409.487 36.7855ZM409.046 47.3586 413.452 47.3586 411.91 42.5126 411.249 39.8693 410.588 42.5126 409.046 47.3586Z" fill="#4472C4" fill-rule="nonzero" fill-opacity="1" transform="matrix(1.00427 0 0 1 14 383.598)"/><path d="M420.28 36.7855 423.584 36.7855 429.091 46.037 430.192 48.2397 430.192 36.7855 433.496 36.7855 433.496 53.306 430.192 53.306 424.465 44.2748 423.364 42.0721 423.364 53.5262 420.06 53.5262 420.06 36.7855 420.28 36.7855Z" fill="#4472C4" fill-rule="nonzero" fill-opacity="1" transform="matrix(1.00427 0 0 1 14 383.598)"/><path d="M436.14 36.7855 442.527 36.7855C446.933 36.7855 449.796 40.3099 449.796 45.1559 449.796 47.7991 448.915 50.2221 447.153 51.5438 445.832 52.6451 444.29 53.0857 442.307 53.0857L436.14 53.0857 436.14 36.7855ZM442.087 50.4424C445.171 50.4424 446.492 48.46 446.492 45.1559 446.492 41.8518 444.95 39.6491 442.307 39.6491L439.664 39.6491 439.664 50.4424 442.087 50.4424Z" fill="#4472C4" fill-rule="nonzero" fill-opacity="1" transform="matrix(1.00427 0 0 1 14 383.598)"/><path d="M454.642 36.7855 467.859 36.7855 467.859 39.6491 462.793 39.6491 462.793 53.306 459.488 53.306 459.488 39.6491 454.422 39.6491 454.422 36.7855 454.642 36.7855Z" fill="#4472C4" fill-rule="nonzero" fill-opacity="1" transform="matrix(1.00427 0 0 1 14 383.598)"/><path d="M469.621 36.7855 481.736 36.7855 481.736 39.6491 472.925 39.6491 472.925 43.3937 480.635 43.3937 480.635 46.037 472.925 46.037 472.925 50.4424 481.736 50.4424 481.736 53.306 469.401 53.306 469.401 36.7855 469.621 36.7855Z" fill="#4472C4" fill-rule="nonzero" fill-opacity="1" transform="matrix(1.00427 0 0 1 14 383.598)"/><path d="M482.837 45.1559C482.837 40.3099 485.921 36.5652 490.767 36.5652 494.732 36.5652 497.155 38.9882 497.596 42.0721L494.292 42.0721C494.071 40.3099 492.75 39.4288 490.767 39.4288 487.683 39.4288 486.362 42.0721 486.362 45.1559 486.362 48.46 488.124 50.883 490.987 50.883 492.97 50.883 494.292 49.7816 494.512 48.0194L497.816 48.0194C497.816 49.5613 497.155 50.883 496.054 51.9843 494.952 53.0857 493.41 53.7465 490.987 53.7465 486.141 53.7465 482.837 50.2221 482.837 45.1559Z" fill="#4472C4" fill-rule="nonzero" fill-opacity="1" transform="matrix(1.00427 0 0 1 14 383.598)"/><path d="M499.578 36.7855 502.882 36.7855 502.882 43.1734 509.49 43.1734 509.49 36.7855 512.794 36.7855 512.794 53.306 509.49 53.306 509.49 46.037 502.882 46.037 502.882 53.306 499.578 53.306 499.578 36.7855Z" fill="#4472C4" fill-rule="nonzero" fill-opacity="1" transform="matrix(1.00427 0 0 1 14 383.598)"/><path d="M515.217 36.7855 518.521 36.7855 524.028 46.037 525.13 48.2397 525.13 36.7855 528.434 36.7855 528.434 53.306 525.13 53.306 519.403 44.2748 518.301 42.0721 518.301 53.5262 514.997 53.5262 514.997 36.7855 515.217 36.7855Z" fill="#4472C4" fill-rule="nonzero" fill-opacity="1" transform="matrix(1.00427 0 0 1 14 383.598)"/><path d="M530.416 45.1559C530.416 40.3099 533.5 36.5652 538.346 36.5652 543.192 36.5652 546.276 40.3099 546.276 45.1559 546.276 50.0019 543.192 53.7465 538.346 53.7465 533.5 53.7465 530.416 50.0019 530.416 45.1559ZM542.972 45.1559C542.972 41.8518 541.43 39.2085 538.566 39.2085 535.703 39.2085 533.941 41.8518 533.941 45.1559 533.941 48.46 535.482 51.1032 538.566 51.1032 541.65 51.1032 542.972 48.46 542.972 45.1559Z" fill="#4472C4" fill-rule="nonzero" fill-opacity="1" transform="matrix(1.00427 0 0 1 14 383.598)"/><path d="M548.038 36.7855 551.342 36.7855 551.342 50.4424 559.052 50.4424 559.052 53.306 548.038 53.306 548.038 36.7855Z" fill="#4472C4" fill-rule="nonzero" fill-opacity="1" transform="matrix(1.00427 0 0 1 14 383.598)"/><path d="M559.712 45.1559C559.712 40.3099 562.796 36.5652 567.642 36.5652 572.488 36.5652 575.572 40.3099 575.572 45.1559 575.572 50.0019 572.488 53.7465 567.642 53.7465 562.796 53.7465 559.712 50.0019 559.712 45.1559ZM572.268 45.1559C572.268 41.8518 570.726 39.2085 567.863 39.2085 564.999 39.2085 563.237 41.8518 563.237 45.1559 563.237 48.46 564.779 51.1032 567.863 51.1032 570.946 51.1032 572.268 48.46 572.268 45.1559Z" fill="#4472C4" fill-rule="nonzero" fill-opacity="1" transform="matrix(1.00427 0 0 1 14 383.598)"/><path d="M589.449 51.1032C588.348 53.0857 586.806 53.7465 584.824 53.7465 582.401 53.7465 580.418 52.8654 579.096 51.3235 577.775 49.7816 576.894 47.5789 576.894 45.1559 576.894 42.5126 577.775 40.0896 579.537 38.3274 580.859 37.0058 582.621 36.345 584.824 36.345 589.009 36.345 591.432 38.5477 591.872 41.8518L588.568 41.8518C588.128 40.3099 587.026 39.2085 584.824 39.2085 581.74 39.2085 580.198 41.8518 580.198 45.1559 580.198 48.46 581.96 51.1032 584.824 51.1032 587.467 51.1032 589.009 49.1208 589.009 47.3586L585.044 47.3586 585.044 44.7153 592.093 44.7153 592.093 53.5262 589.449 53.5262 589.449 51.1032Z" fill="#4472C4" fill-rule="nonzero" fill-opacity="1" transform="matrix(1.00427 0 0 1 14 383.598)"/><path d="M597.599 46.918 592.093 36.7855 595.837 36.7855 598.26 41.6315C598.701 42.7329 599.362 44.0545 599.362 44.0545 599.362 44.0545 600.022 42.7329 600.463 41.6315L602.886 36.7855 606.41 36.7855 600.903 46.918 600.903 53.306 597.599 53.306 597.599 46.918Z" fill="#4472C4" fill-rule="nonzero" fill-opacity="1" transform="matrix(1.00427 0 0 1 14 383.598)"/><path d="M268.292 71.8088 268.292 62.1169 270.054 62.1169 270.054 71.5886C270.054 74.0116 271.376 75.1129 273.799 75.1129 276.001 75.1129 277.323 74.0116 277.323 71.5886L277.323 62.1169 279.085 62.1169 279.085 71.8088C279.085 75.3332 276.662 76.6548 273.578 76.6548 270.715 76.6548 268.292 75.3332 268.292 71.8088Z" fill="#4472C4" fill-rule="nonzero" fill-opacity="1" transform="matrix(1.00427 0 0 1 14 383.598)"/><path d="M280.627 74.4521 282.61 74.4521 282.61 76.4346 280.627 76.4346 280.627 74.4521Z" fill="#4472C4" fill-rule="nonzero" fill-opacity="1" transform="matrix(1.00427 0 0 1 14 383.598)"/><path d="M283.491 71.5886 285.253 71.5886C285.473 74.0116 287.015 75.3332 289.658 75.3332 291.641 75.3332 292.962 74.4521 292.962 72.6899 292.962 70.7075 291.2 70.2669 288.777 69.8264 286.354 69.1656 284.152 68.5048 284.152 65.8615 284.152 63.4385 286.134 62.1169 288.998 62.1169 292.522 62.1169 294.064 63.879 294.284 66.5223L292.522 66.5223C292.302 64.5398 290.98 63.4385 288.777 63.4385 286.795 63.4385 285.693 64.3196 285.693 65.6412 285.693 67.1831 287.235 67.6237 289.438 68.0642 292.302 68.725 294.725 69.3858 294.725 72.4697 294.725 75.1129 292.522 76.6548 289.438 76.6548 285.693 76.6548 283.711 74.4521 283.491 71.5886Z" fill="#4472C4" fill-rule="nonzero" fill-opacity="1" transform="matrix(1.00427 0 0 1 14 383.598)"/><path d="M296.267 74.4521 298.249 74.4521 298.249 76.4346 296.267 76.4346 296.267 74.4521Z" fill="#4472C4" fill-rule="nonzero" fill-opacity="1" transform="matrix(1.00427 0 0 1 14 383.598)"/><path d="M303.536 62.3371 308.602 62.3371C312.787 62.3371 314.99 65.2007 314.99 69.3858 314.99 73.571 312.787 76.4346 308.602 76.4346L303.536 76.4346 303.536 62.3371ZM308.382 74.8927C311.686 74.8927 313.007 72.6899 313.007 69.3858 313.007 66.0818 311.906 63.879 308.382 63.879L305.298 63.879 305.298 74.8927 308.382 74.8927Z" fill="#4472C4" fill-rule="nonzero" fill-opacity="1" transform="matrix(1.00427 0 0 1 14 383.598)"/><path d="M316.972 62.3371 326.884 62.3371 326.884 63.879 318.734 63.879 318.734 68.2845 326.224 68.2845 326.224 69.8264 318.734 69.8264 318.734 74.8927 327.105 74.8927 327.105 76.4346 316.752 76.4346 316.972 62.3371Z" fill="#4472C4" fill-rule="nonzero" fill-opacity="1" transform="matrix(1.00427 0 0 1 14 383.598)"/><path d="M329.307 62.3371 335.255 62.3371C336.797 62.3371 337.898 62.7777 338.559 63.6588 339.22 64.3196 339.44 65.2007 339.44 66.302 339.44 68.9453 337.898 70.4872 334.814 70.4872L330.849 70.4872 330.849 76.4346 329.087 76.4346 329.087 62.3371 329.307 62.3371ZM331.29 69.1656 335.035 69.1656C337.017 69.1656 337.898 68.0642 337.898 66.5223 337.898 64.7601 336.797 63.879 335.035 63.879L331.29 63.879 331.29 69.1656Z" fill="#4472C4" fill-rule="nonzero" fill-opacity="1" transform="matrix(1.00427 0 0 1 14 383.598)"/><path d="M344.286 62.3371 346.268 62.3371 351.555 76.4346 349.572 76.4346 348.031 72.0291 342.303 72.0291 340.762 76.4346 338.999 76.4346 344.286 62.3371ZM342.964 70.7075 347.59 70.7075 346.048 65.8615C345.828 64.9804 345.387 63.879 345.387 63.879 345.387 63.879 344.947 64.9804 344.727 65.8615L342.964 70.7075Z" fill="#4472C4" fill-rule="nonzero" fill-opacity="1" transform="matrix(1.00427 0 0 1 14 383.598)"/><path d="M353.097 62.3371 359.705 62.3371C362.128 62.3371 363.89 63.879 363.89 66.302 363.89 68.0642 363.229 69.1656 361.467 69.8264 363.009 70.2669 363.45 71.3683 363.45 73.3507 363.67 75.5535 363.89 76.2143 364.11 76.4346L362.128 76.4346C361.908 76.2143 361.687 75.5535 361.687 73.3507 361.467 71.3683 360.806 70.4872 358.824 70.4872L354.859 70.4872 354.859 76.4346 353.097 76.4346 353.097 62.3371ZM354.859 68.9453 359.044 68.9453C361.027 68.9453 362.128 67.8439 362.128 66.302 362.128 64.5398 361.247 63.6588 359.264 63.6588L354.859 63.6588 354.859 68.9453Z" fill="#4472C4" fill-rule="nonzero" fill-opacity="1" transform="matrix(1.00427 0 0 1 14 383.598)"/><path d="M364.992 62.3371 376.225 62.3371 376.225 63.879 371.379 63.879 371.379 76.4346 369.617 76.4346 369.617 63.879 364.992 63.879 364.992 62.3371Z" fill="#4472C4" fill-rule="nonzero" fill-opacity="1" transform="matrix(1.00427 0 0 1 14 383.598)"/><path d="M377.988 62.3371 380.19 62.3371 384.816 74.0116 389.442 62.3371 391.865 62.3371 391.865 76.4346 390.103 76.4346 390.103 64.7601C390.103 64.7601 389.662 65.8615 389.442 66.5223L385.477 76.4346 384.155 76.4346 380.19 66.5223C379.97 65.8615 379.53 64.7601 379.53 64.7601L379.53 76.4346 377.988 76.4346 377.988 62.3371Z" fill="#4472C4" fill-rule="nonzero" fill-opacity="1" transform="matrix(1.00427 0 0 1 14 383.598)"/><path d="M394.288 62.3371 404.2 62.3371 404.2 63.879 396.05 63.879 396.05 68.2845 403.539 68.2845 403.539 69.8264 396.05 69.8264 396.05 74.8927 404.42 74.8927 404.42 76.4346 394.068 76.4346 394.288 62.3371Z" fill="#4472C4" fill-rule="nonzero" fill-opacity="1" transform="matrix(1.00427 0 0 1 14 383.598)"/><path d="M406.623 62.3371 408.606 62.3371 414.993 72.2494C415.434 72.9102 416.095 74.0116 416.095 74.0116L416.095 62.3371 417.857 62.3371 417.857 76.4346 416.095 76.4346 409.487 66.5223C409.046 65.8615 408.385 64.7601 408.385 64.7601L408.385 76.4346 406.623 76.4346 406.623 62.3371Z" fill="#4472C4" fill-rule="nonzero" fill-opacity="1" transform="matrix(1.00427 0 0 1 14 383.598)"/><path d="M419.619 62.3371 430.853 62.3371 430.853 63.879 426.227 63.879 426.227 76.4346 424.245 76.4346 424.245 63.879 419.619 63.879 419.619 62.3371Z" fill="#4472C4" fill-rule="nonzero" fill-opacity="1" transform="matrix(1.00427 0 0 1 14 383.598)"/><path d="M435.038 69.3858C435.038 65.2007 437.681 61.8966 442.087 61.8966 446.272 61.8966 449.136 64.9804 449.136 69.3858 449.136 73.571 446.492 76.8751 442.087 76.8751 437.681 76.8751 435.038 73.571 435.038 69.3858ZM447.153 69.3858C447.153 66.0818 445.391 63.4385 442.087 63.4385 438.783 63.4385 437.021 65.8615 437.021 69.3858 437.021 72.6899 438.783 75.1129 442.087 75.1129 445.391 75.1129 447.153 72.6899 447.153 69.3858Z" fill="#4472C4" fill-rule="nonzero" fill-opacity="1" transform="matrix(1.00427 0 0 1 14 383.598)"/><path d="M451.118 62.3371 460.81 62.3371 460.81 63.879 452.88 63.879 452.88 68.2845 459.488 68.2845 459.488 69.8264 452.88 69.8264 452.88 76.4346 451.118 76.4346 451.118 62.3371Z" fill="#4472C4" fill-rule="nonzero" fill-opacity="1" transform="matrix(1.00427 0 0 1 14 383.598)"/><path d="M465.216 69.3858C465.216 65.2007 467.639 61.8966 472.044 61.8966 475.348 61.8966 477.331 63.879 477.771 66.5223L476.009 66.5223C475.568 64.7601 474.247 63.4385 472.044 63.4385 468.96 63.4385 467.198 65.8615 467.198 69.3858 467.198 72.9102 469.18 75.1129 472.044 75.1129 474.687 75.1129 476.009 73.3507 476.229 71.148L477.991 71.148C477.991 72.4697 477.331 74.2318 476.229 75.1129 475.128 75.994 473.806 76.6548 472.044 76.6548 467.859 76.6548 465.216 73.7913 465.216 69.3858Z" fill="#4472C4" fill-rule="nonzero" fill-opacity="1" transform="matrix(1.00427 0 0 1 14 383.598)"/><path d="M479.313 69.3858C479.313 65.2007 481.956 61.8966 486.362 61.8966 490.767 61.8966 493.41 64.9804 493.41 69.3858 493.41 73.571 490.767 76.8751 486.362 76.8751 481.956 76.8751 479.313 73.571 479.313 69.3858ZM491.208 69.3858C491.208 66.0818 489.446 63.4385 486.141 63.4385 482.837 63.4385 481.075 65.8615 481.075 69.3858 481.075 72.6899 482.837 75.1129 486.141 75.1129 489.446 75.1129 491.208 72.6899 491.208 69.3858Z" fill="#4472C4" fill-rule="nonzero" fill-opacity="1" transform="matrix(1.00427 0 0 1 14 383.598)"/><path d="M495.173 62.3371 497.375 62.3371 502.001 74.0116 506.627 62.3371 509.05 62.3371 509.05 76.4346 507.288 76.4346 507.288 64.7601C507.288 64.7601 506.847 65.8615 506.627 66.5223L502.662 76.4346 501.34 76.4346 497.375 66.5223C497.155 65.8615 496.715 64.7601 496.715 64.7601L496.715 76.4346 495.173 76.4346 495.173 62.3371Z" fill="#4472C4" fill-rule="nonzero" fill-opacity="1" transform="matrix(1.00427 0 0 1 14 383.598)"/><path d="M511.693 62.3371 513.896 62.3371 518.521 74.0116 523.147 62.3371 525.57 62.3371 525.57 76.4346 523.808 76.4346 523.808 64.7601C523.808 64.7601 523.367 65.8615 523.147 66.5223L519.182 76.4346 517.861 76.4346 513.896 66.5223C513.675 65.8615 513.235 64.7601 513.235 64.7601L513.235 76.4346 511.693 76.4346 511.693 62.3371Z" fill="#4472C4" fill-rule="nonzero" fill-opacity="1" transform="matrix(1.00427 0 0 1 14 383.598)"/><path d="M528.214 62.3371 538.126 62.3371 538.126 63.879 529.976 63.879 529.976 68.2845 537.465 68.2845 537.465 69.8264 529.976 69.8264 529.976 74.8927 538.346 74.8927 538.346 76.4346 527.993 76.4346 527.993 62.3371 528.214 62.3371Z" fill="#4472C4" fill-rule="nonzero" fill-opacity="1" transform="matrix(1.00427 0 0 1 14 383.598)"/><path d="M540.549 62.3371 547.157 62.3371C549.58 62.3371 551.342 63.879 551.342 66.302 551.342 68.0642 550.681 69.1656 548.919 69.8264 550.461 70.2669 550.902 71.3683 550.902 73.3507 551.122 75.5535 551.342 76.2143 551.562 76.4346L549.58 76.4346C549.36 76.2143 549.139 75.5535 549.139 73.3507 548.919 71.3683 548.258 70.4872 546.276 70.4872L542.311 70.4872 542.311 76.4346 540.549 76.4346 540.549 62.3371ZM542.311 68.9453 546.496 68.9453C548.479 68.9453 549.58 67.8439 549.58 66.302 549.58 64.5398 548.699 63.6588 546.716 63.6588L542.311 63.6588 542.311 68.9453Z" fill="#4472C4" fill-rule="nonzero" fill-opacity="1" transform="matrix(1.00427 0 0 1 14 383.598)"/><path d="M552.884 69.3858C552.884 65.2007 555.307 61.8966 559.712 61.8966 563.017 61.8966 564.999 63.879 565.44 66.5223L563.677 66.5223C563.237 64.7601 561.915 63.4385 559.712 63.4385 556.629 63.4385 554.866 65.8615 554.866 69.3858 554.866 72.9102 556.849 75.1129 559.712 75.1129 562.356 75.1129 563.677 73.3507 563.898 71.148L565.66 71.148C565.66 72.4697 564.999 74.2318 563.898 75.1129 562.796 75.994 561.475 76.6548 559.712 76.6548 555.527 76.6548 552.884 73.7913 552.884 69.3858Z" fill="#4472C4" fill-rule="nonzero" fill-opacity="1" transform="matrix(1.00427 0 0 1 14 383.598)"/><path d="M567.422 62.3371 577.334 62.3371 577.334 63.879 569.184 63.879 569.184 68.2845 576.673 68.2845 576.673 69.8264 569.184 69.8264 569.184 74.8927 577.555 74.8927 577.555 76.4346 567.422 76.4346 567.422 62.3371Z" fill="#4472C4" fill-rule="nonzero" fill-opacity="1" transform="matrix(1.00427 0 0 1 14 383.598)"/><path d="M249.348 1.10136 249.348 12.9961 259.701 20.0448 249.348 26.8732 249.348 83.7036" stroke="#FFFFFF" stroke-width="2.24524" stroke-linecap="round" stroke-linejoin="round" stroke-miterlimit="10" stroke-opacity="1" fill="#4472C4" fill-rule="nonzero" fill-opacity="1" transform="matrix(1.00427 0 0 1 14 383.598)"/><path d="M12.9961 76.2143 0 76.2143 0 26.2124C0 26.2124 0 16.7407 9.47172 13.6569 18.0623 11.0136 23.7894 16.5204 23.7894 16.5204L66.5223 62.7777C68.725 64.0993 69.6061 62.7777 69.6061 61.456L69.6061 13.6569 82.8225 13.6569 82.8225 63.4385C82.8225 67.6237 79.2981 72.9102 74.2318 74.8927 69.1656 76.8751 63.6588 76.8751 57.0506 71.3683L16.961 27.7543C15.8596 26.653 13.2164 26.4327 12.9961 28.6354L12.9961 76.2143Z" fill="#4472C4" fill-rule="nonzero" fill-opacity="1" transform="matrix(1.00427 0 0 1 14 383.598)"/><path d="M91.1928 13.6569 104.189 13.6569 104.189 58.5925C104.189 63.4385 108.154 63.4385 112.119 63.4385L170.271 63.4385C172.694 63.4385 175.337 60.5749 175.337 57.7114 175.337 54.6276 172.473 51.764 169.83 51.764L132.164 51.764C125.776 51.9843 112.119 46.037 112.119 33.2612 112.119 17.6218 124.895 14.3177 130.842 13.8772L237.894 13.8772 237.894 27.0935 211.021 27.0935 211.021 76.6548 198.025 76.6548 198.025 26.8732 132.604 26.8732C126.436 26.4327 121.811 37.0058 132.164 38.5477L172.473 38.5477C178.641 38.5477 188.553 43.8342 188.553 56.8303 188.553 70.0467 180.844 76.2143 172.473 76.2143L113 76.2143C103.088 76.2143 99.5632 74.0116 96.2591 70.7075 92.955 67.6237 92.5145 65.8615 91.4131 59.2533L91.1928 13.6569Z" fill="#4472C4" fill-rule="nonzero" fill-opacity="1" transform="matrix(1.00427 0 0 1 14 383.598)"/></g></g></g></g></g></svg>